<svg width="51" height="50" viewBox="0 0 51 50" fill="none" xmlns="http://www.w3.org/2000/svg">
<path d="M21.5922 4.0064C20.4755 5.12309 20.5872 6.79813 21.5922 7.91483L35.1042 20.6451H3.05507C1.49169 20.6451 0.375 21.8735 0.375 23.3252V26.8986C0.375 28.462 1.49169 29.5787 3.05507 29.5787H35.1042L21.5922 42.4207C20.5872 43.5374 20.5872 45.2124 21.5922 46.3291L24.0489 48.7858C25.1656 49.7909 26.8407 49.7909 27.8457 48.7858L49.6212 27.0103C50.6263 26.0053 50.6263 24.3302 49.6212 23.2135L27.8457 1.54967C26.8407 0.544642 25.1656 0.544642 24.0489 1.54967L21.5922 4.0064Z" fill="#5A7184"/>
</svg>
