<svg width="75" height="75" fill="none" xmlns="http://www.w3.org/2000/svg"><path fill-rule="evenodd" clip-rule="evenodd" d="M37.5 75C58.21 75 75 58.21 75 37.5S58.21 0 37.5 0 0 16.79 0 37.5 16.79 75 37.5 75Z" fill="#183B56"/><path d="M32.495 49.45 22.302 39.32c-.285-.285-.427-.651-.427-1.099 0-.447.142-.814.427-1.098l2.258-2.198a1.36 1.36 0 0 1 1.069-.488c.427 0 .803.163 1.129.488l6.836 6.836 14.648-14.648c.326-.326.702-.488 1.13-.488.426 0 .782.162 1.067.488l2.259 2.197c.284.285.427.651.427 1.099 0 .447-.143.813-.427 1.098L34.692 49.451a1.393 1.393 0 0 1-1.098.488c-.448 0-.814-.163-1.099-.488Z" fill="#fff"/></svg>