<svg width="50" height="44" fill="none" xmlns="http://www.w3.org/2000/svg"><path d="M45.313 21.875H37.5v-6.25a6.23 6.23 0 0 1 6.25-6.25h.781c1.27 0 2.344-.977 2.344-2.344V2.344c0-1.27-1.074-2.344-2.344-2.344h-.781c-8.691 0-15.625 7.031-15.625 15.625v23.438c0 2.636 2.05 4.687 4.688 4.687h12.5c2.539 0 4.687-2.05 4.687-4.688v-12.5c0-2.539-2.148-4.687-4.688-4.687Zm-28.126 0H9.375v-6.25a6.23 6.23 0 0 1 6.25-6.25h.781c1.27 0 2.344-.977 2.344-2.344V2.344C18.75 1.074 17.676 0 16.406 0h-.781C6.934 0 0 7.031 0 15.625v23.438c0 2.636 2.05 4.687 4.688 4.687h12.5c2.539 0 4.687-2.05 4.687-4.688v-12.5c0-2.539-2.148-4.687-4.688-4.687Z" fill="#183B56"/></svg>